# xmcd
#
# Track frame offsets:
#	150
#	14425
#	30930
#	46383
#	64358
#	80155
#	92228
#	112633
#	128928
#	149383
#	167998
#	192010
#
# Disc length: 2842 seconds
#
# Revision: 1
# Processed by: cddbd v1.5PL3 Copyright (c) Steve Scherf et al.
# Submitted via: CDex 1.50Beta5
#
DISCID=a00b180c
DTITLE=チューリップ - Best Of TULIP Disc 1
DYEAR=1991
DGENRE=Pop
TTITLE0=魔法の黄色い靴
TTITLE1=心の旅
TTITLE2=夏色のおもいで
TTITLE3=青春の影
TTITLE4=ぼくがつくった愛のうた
TTITLE5=銀の指環
TTITLE6=サボテンの花
TTITLE7=悲しきレイン・トレイン
TTITLE8=虹とスニーカーの頃
TTITLE9=さよなら道化者
TTITLE10=Shooting Star
TTITLE11=モーニング・スコール
EXTD=
EXTT0=
EXTT1=
EXTT2=
EXTT3=
EXTT4=
EXTT5=
EXTT6=
EXTT7=
EXTT8=
EXTT9=
EXTT10=
EXTT11=
PLAYORDER=
